<svg fill="#000000" version="1.1" id="Layer_1" xmlns="http://www.w3.org/2000/svg" xmlns:xlink="http://www.w3.org/1999/xlink" 
	 width="16px" height="16px" viewBox="0 0 100 100" enable-background="new 0 0 100 100" xml:space="preserve">
<g>
	<path d="M83,26.5c0-0.829-0.672-1.5-1.5-1.5h-62c-0.829,0-1.5,0.671-1.5,1.5v35c0,0.828,0.671,1.5,1.5,1.5h62
		c0.828,0,1.5-0.672,1.5-1.5V26.5z M21,28h59v32H21V28z"/>
	<path d="M16,71h26.762c-0.321,3-1.5,8-4.055,10H28c-1.104,0-2,0.896-2,2s0.896,2,2,2h46c1.104,0,2-0.896,2-2s-0.896-2-2-2h-9.729
		c-2.556-2-3.734-7-4.056-10H85c3.309,0,6-2.811,6-6.119v-42C91,19.572,88.309,17,85,17H16c-3.309,0-6,2.572-6,5.881v42
		C10,68.189,12.691,71,16,71z M59.045,81H43.932c2.102-4,2.709-9,2.853-10h9.407C56.336,72,56.943,77,59.045,81z M87,65
		c0,1.104-0.896,2-2,2H16c-1.104,0-2-0.896-2-2V23c0-1.104,0.896-2,2-2h69c1.104,0,2,0.896,2,2V65z"/>
</g>
</svg>